<svg xmlns="http://www.w3.org/2000/svg" version="1.1" xmlns:xlink="http://www.w3.org/1999/xlink" xmlns:svgjs="http://svgjs.dev/svgjs" width="1440" height="560" preserveAspectRatio="none" viewBox="0 0 1440 560"><g mask="url(&quot;#SvgjsMask1010&quot;)" fill="none"><rect width="1440" height="560" x="0" y="0" fill="#0e2a47"></rect><path d="M 0,52 C 57.6,77.4 172.8,163.6 288,179 C 403.2,194.4 460.8,114.6 576,129 C 691.2,143.4 748.8,250.8 864,251 C 979.2,251.2 1036.8,140.8 1152,130 C 1267.2,119.2 1382.4,183.6 1440,197L1440 560L0 560z" fill="#184a7e"></path><path d="M 0,423 C 96,406 288,323.6 480,338 C 672,352.4 768,499.4 960,495 C 1152,490.6 1344,351.8 1440,316L1440 560L0 560z" fill="#2264ab"></path></g><defs><mask id="SvgjsMask1010"><rect width="1440" height="560" fill="#ffffff"></rect></mask></defs></svg>